<svg width="111" height="111" viewBox="0 0 111 111" fill="none" xmlns="http://www.w3.org/2000/svg">
<rect width="111" height="111" rx="30" fill="white" fill-opacity="0.01"/>
<g filter="url(#filter0_ddi_0_1)">
<path d="M44.0297 21V15C44.0297 12.7909 45.8206 11 48.0297 11H64.2074C66.4165 11 68.2074 12.7909 68.2074 15V21" stroke="#D10F49" stroke-width="5"/>
<path d="M23.6131 20.7778L88.624 20.7841" stroke="#D10F49" stroke-width="7" stroke-linecap="round"/>
<path fill-rule="evenodd" clip-rule="evenodd" d="M80.7174 99H31.2825C30.7783 99 30.353 98.6247 30.2902 98.1245L22.0079 32.1245C21.933 31.5275 22.3985 31 23.0001 31H88.9997C89.6014 31 90.0669 31.5275 89.992 32.1245L81.7097 98.1245C81.6469 98.6247 81.2216 99 80.7174 99ZM47.8657 34.0037C50.6251 33.8984 52.9487 36.0499 53.0556 38.8092L55.0704 90.8087C55.1773 93.568 53.0271 95.8903 50.2676 95.9957C47.5082 96.101 45.1846 93.9495 45.0777 91.1902L43.0629 39.1908C42.956 36.4314 45.1063 34.1091 47.8657 34.0037ZM69.1741 39.1908C69.281 36.4314 67.1307 34.1091 64.3713 34.0037C61.6119 33.8984 59.2882 36.0499 59.1813 38.8092L57.1666 90.8087C57.0596 93.568 59.2099 95.8903 61.9693 95.9957C64.7287 96.101 67.0524 93.9495 67.1593 91.1902L69.1741 39.1908ZM80.8734 34.0334C83.6169 34.3477 85.5825 36.826 85.2636 39.569L79.2192 91.569C78.9004 94.3119 76.4179 96.2808 73.6744 95.9666C70.9309 95.6523 68.9653 93.174 69.2842 90.431L75.3286 38.431C75.6474 35.6881 78.1299 33.7192 80.8734 34.0334ZM36.9084 38.431C36.5895 35.6881 34.107 33.7192 31.3635 34.0334C28.62 34.3477 26.6545 36.826 26.9733 39.569L33.0177 91.569C33.3366 94.3119 35.8191 96.2808 38.5625 95.9666C41.306 95.6523 43.2716 93.174 42.9528 90.431L36.9084 38.431Z" fill="#D10F49"/>
<path d="M30.2902 98.1245L32.2747 97.8755L30.2902 98.1245ZM22.0079 32.1245L23.9924 31.8755L22.0079 32.1245ZM89.992 32.1245L88.0075 31.8755V31.8755L89.992 32.1245ZM81.7097 98.1245L79.7252 97.8755L79.7252 97.8755L81.7097 98.1245ZM53.0556 38.8092L55.0541 38.7318V38.7318L53.0556 38.8092ZM55.0704 90.8087L53.0719 90.8861L55.0704 90.8087ZM50.2676 95.9957L50.1913 93.9971H50.1913L50.2676 95.9957ZM45.0777 91.1902L43.0792 91.2676L45.0777 91.1902ZM43.0629 39.1908L45.0614 39.1133L43.0629 39.1908ZM64.3713 34.0037L64.4476 32.0052L64.3713 34.0037ZM69.1741 39.1908L71.1726 39.2682L69.1741 39.1908ZM59.1813 38.8092L61.1798 38.8867L59.1813 38.8092ZM57.1666 90.8087L55.1681 90.7312L57.1666 90.8087ZM61.9693 95.9957L62.0456 93.9971H62.0456L61.9693 95.9957ZM67.1593 91.1902L65.1608 91.1127L67.1593 91.1902ZM85.2636 39.569L83.277 39.338V39.338L85.2636 39.569ZM80.8734 34.0334L81.101 32.0464L80.8734 34.0334ZM79.2192 91.569L77.2326 91.338L79.2192 91.569ZM73.6744 95.9666L73.4468 97.9536L73.6744 95.9666ZM69.2842 90.431L71.2708 90.662L69.2842 90.431ZM75.3286 38.431L77.3152 38.662V38.662L75.3286 38.431ZM31.3635 34.0334L31.5911 36.0204L31.3635 34.0334ZM36.9084 38.431L34.9217 38.662L36.9084 38.431ZM26.9733 39.569L28.9599 39.338L26.9733 39.569ZM33.0177 91.569L35.0043 91.338L33.0177 91.569ZM42.9528 90.431L44.9394 90.2001L42.9528 90.431ZM31.2825 101H80.7174V97H31.2825V101ZM28.3058 98.3735C28.4941 99.8742 29.77 101 31.2825 101V97C31.7866 97 32.2119 97.3753 32.2747 97.8755L28.3058 98.3735ZM20.0235 32.3735L28.3058 98.3735L32.2747 97.8755L23.9924 31.8755L20.0235 32.3735ZM23.0001 29C21.1951 29 19.7987 30.5825 20.0235 32.3735L23.9924 31.8755C24.0673 32.4725 23.6018 33 23.0001 33V29ZM88.9997 29H23.0001V33H88.9997V29ZM91.9764 32.3735C92.2012 30.5825 90.8048 29 88.9997 29V33C88.3981 33 87.9326 32.4725 88.0075 31.8755L91.9764 32.3735ZM83.6941 98.3735L91.9764 32.3735L88.0075 31.8755L79.7252 97.8755L83.6941 98.3735ZM80.7174 101C82.2298 101 83.5058 99.8742 83.6941 98.3735L79.7252 97.8755C79.788 97.3753 80.2133 97 80.7174 97V101ZM55.0541 38.7318C54.9045 34.8692 51.6521 31.8577 47.7894 32.0052L47.942 36.0023C49.5981 35.9391 50.993 37.2306 51.0571 38.8867L55.0541 38.7318ZM57.0689 90.7312L55.0541 38.7318L51.0571 38.8867L53.0719 90.8861L57.0689 90.7312ZM50.3439 97.9942C54.2076 97.8467 57.2186 94.5948 57.0689 90.7312L53.0719 90.8861C53.136 92.5413 51.8465 93.9339 50.1913 93.9971L50.3439 97.9942ZM43.0792 91.2676C43.2289 95.1303 46.4812 98.1417 50.3439 97.9942L50.1913 93.9971C48.5353 94.0604 47.1404 92.7688 47.0762 91.1127L43.0792 91.2676ZM41.0644 39.2682L43.0792 91.2676L47.0762 91.1127L45.0614 39.1133L41.0644 39.2682ZM47.7894 32.0052C43.9258 32.1527 40.9147 35.4047 41.0644 39.2682L45.0614 39.1133C44.9973 37.4582 46.2868 36.0655 47.942 36.0023L47.7894 32.0052ZM64.295 36.0023C65.9502 36.0655 67.2397 37.4582 67.1756 39.1133L71.1726 39.2682C71.3223 35.4047 68.3112 32.1527 64.4476 32.0052L64.295 36.0023ZM61.1798 38.8867C61.244 37.2306 62.6389 35.9391 64.295 36.0023L64.4476 32.0052C60.5848 31.8577 57.3325 34.8692 57.1828 38.7318L61.1798 38.8867ZM59.1651 90.8861L61.1798 38.8867L57.1828 38.7318L55.1681 90.7312L59.1651 90.8861ZM62.0456 93.9971C60.3904 93.9339 59.1009 92.5413 59.1651 90.8861L55.1681 90.7312C55.0184 94.5948 58.0294 97.8467 61.893 97.9942L62.0456 93.9971ZM65.1608 91.1127C65.0966 92.7688 63.7017 94.0604 62.0456 93.9971L61.893 97.9942C65.7558 98.1417 69.0081 95.1303 69.1578 91.2676L65.1608 91.1127ZM67.1756 39.1133L65.1608 91.1127L69.1578 91.2676L71.1726 39.2682L67.1756 39.1133ZM87.2503 39.7999C87.6968 35.9584 84.9432 32.4865 81.101 32.0464L80.6458 36.0204C82.2906 36.2088 83.4682 37.6936 83.277 39.338L87.2503 39.7999ZM81.2058 91.7999L87.2503 39.7999L83.277 39.338L77.2326 91.338L81.2058 91.7999ZM73.4468 97.9536C77.2864 98.3933 80.7596 95.6387 81.2058 91.7999L77.2326 91.338C77.0411 92.9851 75.5494 94.1682 73.902 93.9796L73.4468 97.9536ZM67.2976 90.2001C66.851 94.0415 69.6046 97.5135 73.4468 97.9536L73.902 93.9796C72.2572 93.7912 71.0797 92.3064 71.2708 90.662L67.2976 90.2001ZM73.342 38.2001L67.2976 90.2001L71.2708 90.662L77.3152 38.662L73.342 38.2001ZM81.101 32.0464C77.2614 31.6067 73.7882 34.3613 73.342 38.2001L77.3152 38.662C77.5067 37.0149 78.9984 35.8318 80.6458 36.0204L81.101 32.0464ZM31.5911 36.0204C33.2385 35.8318 34.7303 37.0149 34.9217 38.662L38.895 38.2001C38.4488 34.3613 34.9755 31.6067 31.1359 32.0464L31.5911 36.0204ZM28.9599 39.338C28.7688 37.6936 29.9463 36.2088 31.5911 36.0204L31.1359 32.0464C27.2938 32.4865 24.5402 35.9584 24.9867 39.7999L28.9599 39.338ZM35.0043 91.338L28.9599 39.338L24.9867 39.7999L31.0311 91.7999L35.0043 91.338ZM38.335 93.9796C36.6876 94.1682 35.1958 92.9851 35.0043 91.338L31.0311 91.7999C31.4773 95.6387 34.9506 98.3933 38.7901 97.9536L38.335 93.9796ZM40.9661 90.662C41.1573 92.3064 39.9798 93.7912 38.335 93.9796L38.7901 97.9536C42.6323 97.5135 45.3859 94.0415 44.9394 90.2001L40.9661 90.662ZM34.9217 38.662L40.9661 90.662L44.9394 90.2001L38.895 38.2001L34.9217 38.662Z" fill="#D10F49"/>
</g>
<defs>
<filter id="filter0_ddi_0_1" x="16.9997" y="8.5" width="78.1243" height="96.5" filterUnits="userSpaceOnUse" color-interpolation-filters="sRGB">
<feFlood flood-opacity="0" result="BackgroundImageFix"/>
<feColorMatrix in="SourceAlpha" type="matrix" values="0 0 0 0 0 0 0 0 0 0 0 0 0 0 0 0 0 0 127 0" result="hardAlpha"/>
<feOffset dx="1" dy="2"/>
<feGaussianBlur stdDeviation="1"/>
<feComposite in2="hardAlpha" operator="out"/>
<feColorMatrix type="matrix" values="0 0 0 0 0 0 0 0 0 0 0 0 0 0 0 0 0 0 0.1 0"/>
<feBlend mode="normal" in2="BackgroundImageFix" result="effect1_dropShadow_0_1"/>
<feColorMatrix in="SourceAlpha" type="matrix" values="0 0 0 0 0 0 0 0 0 0 0 0 0 0 0 0 0 0 127 0" result="hardAlpha"/>
<feOffset dx="-1" dy="2"/>
<feGaussianBlur stdDeviation="1"/>
<feComposite in2="hardAlpha" operator="out"/>
<feColorMatrix type="matrix" values="0 0 0 0 0 0 0 0 0 0 0 0 0 0 0 0 0 0 0.1 0"/>
<feBlend mode="normal" in2="effect1_dropShadow_0_1" result="effect2_dropShadow_0_1"/>
<feBlend mode="normal" in="SourceGraphic" in2="effect2_dropShadow_0_1" result="shape"/>
<feColorMatrix in="SourceAlpha" type="matrix" values="0 0 0 0 0 0 0 0 0 0 0 0 0 0 0 0 0 0 127 0" result="hardAlpha"/>
<feOffset dy="2"/>
<feGaussianBlur stdDeviation="0.5"/>
<feComposite in2="hardAlpha" operator="arithmetic" k2="-1" k3="1"/>
<feColorMatrix type="matrix" values="0 0 0 0 0 0 0 0 0 0 0 0 0 0 0 0 0 0 0.3 0"/>
<feBlend mode="normal" in2="shape" result="effect3_innerShadow_0_1"/>
</filter>
</defs>
</svg>
