<svg width="111" height="111" viewBox="0 0 111 111" fill="none" xmlns="http://www.w3.org/2000/svg">
<rect width="111" height="111" rx="30" fill="white" fill-opacity="0.01"/>
<g filter="url(#filter0_ddi_0_1)">
<path d="M74.8093 18.464L92.536 36.1906" stroke="#D10F49" stroke-width="3"/>
<path d="M69.7446 23.5288L87.4712 41.2554" stroke="#D10F49" stroke-width="3"/>
<path d="M16.5647 76.7086C16.5647 76.7086 19.1298 84.3385 22.8957 88.1043C26.6615 91.8701 34.2913 94.4352 34.2913 94.4352" stroke="#D10F49" stroke-width="3"/>
<path d="M34.2914 94.4352C34.2914 94.4352 95.0683 33.6583 97.6007 31.1259C100.133 28.5935 100.133 26.0611 97.6007 23.5288C95.0683 20.9964 92.536 18.464 92.536 18.464" stroke="#D10F49" stroke-width="3" stroke-linecap="round"/>
<path d="M16.5647 76.7086C16.5647 76.7086 77.3417 15.9316 79.8741 13.3993C82.4065 10.8669 84.9388 10.8669 87.4712 13.3993C90.0036 15.9316 92.536 18.464 92.536 18.464" stroke="#D10F49" stroke-width="3" stroke-linecap="round"/>
<path d="M11.5 99.5L34.2914 94.4352" stroke="#D10F49" stroke-width="3" stroke-linecap="round"/>
<path d="M11.5 99.5L16.5647 76.7086" stroke="#D10F49" stroke-width="3" stroke-linecap="round"/>
<path d="M80.5501 36.3336L26.8586 90.025" stroke="#D10F49" stroke-width="3" stroke-linecap="round"/>
<path d="M19.6197 97.6108L13 98L13.3892 91.3803C13.3892 91.3803 14.1929 94.5958 15.2986 95.7014C16.4042 96.8071 19.6197 97.6108 19.6197 97.6108Z" stroke="#D10F49" stroke-width="3"/>
<path d="M75.2862 30.0169L20.542 83.7084" stroke="#D10F49" stroke-width="3" stroke-linecap="round"/>
</g>
<defs>
<filter id="filter0_ddi_0_1" x="6.99966" y="9.99997" width="97.0003" height="95.0003" filterUnits="userSpaceOnUse" color-interpolation-filters="sRGB">
<feFlood flood-opacity="0" result="BackgroundImageFix"/>
<feColorMatrix in="SourceAlpha" type="matrix" values="0 0 0 0 0 0 0 0 0 0 0 0 0 0 0 0 0 0 127 0" result="hardAlpha"/>
<feOffset dx="1" dy="2"/>
<feGaussianBlur stdDeviation="1"/>
<feComposite in2="hardAlpha" operator="out"/>
<feColorMatrix type="matrix" values="0 0 0 0 0 0 0 0 0 0 0 0 0 0 0 0 0 0 0.1 0"/>
<feBlend mode="normal" in2="BackgroundImageFix" result="effect1_dropShadow_0_1"/>
<feColorMatrix in="SourceAlpha" type="matrix" values="0 0 0 0 0 0 0 0 0 0 0 0 0 0 0 0 0 0 127 0" result="hardAlpha"/>
<feOffset dx="-1" dy="2"/>
<feGaussianBlur stdDeviation="1"/>
<feComposite in2="hardAlpha" operator="out"/>
<feColorMatrix type="matrix" values="0 0 0 0 0 0 0 0 0 0 0 0 0 0 0 0 0 0 0.1 0"/>
<feBlend mode="normal" in2="effect1_dropShadow_0_1" result="effect2_dropShadow_0_1"/>
<feBlend mode="normal" in="SourceGraphic" in2="effect2_dropShadow_0_1" result="shape"/>
<feColorMatrix in="SourceAlpha" type="matrix" values="0 0 0 0 0 0 0 0 0 0 0 0 0 0 0 0 0 0 127 0" result="hardAlpha"/>
<feOffset dy="2"/>
<feGaussianBlur stdDeviation="0.5"/>
<feComposite in2="hardAlpha" operator="arithmetic" k2="-1" k3="1"/>
<feColorMatrix type="matrix" values="0 0 0 0 0 0 0 0 0 0 0 0 0 0 0 0 0 0 0.3 0"/>
<feBlend mode="normal" in2="shape" result="effect3_innerShadow_0_1"/>
</filter>
</defs>
</svg>
