<svg width="12" height="12" viewBox="0 0 12 12" fill="none" xmlns="http://www.w3.org/2000/svg">
<path d="M1 11H11" stroke="black" stroke-linecap="round"/>
<path d="M1 1H11" stroke="black" stroke-linecap="round"/>
<path d="M11 1L11 11" stroke="black" stroke-linecap="round"/>
<path d="M1 1L1 11" stroke="black" stroke-linecap="round"/>
<path d="M3.5 8L5.73775 3.97205C5.85205 3.7663 6.14795 3.7663 6.26225 3.97204L8.5 8" stroke="black" stroke-linecap="round"/>
<path d="M3.5 8L5.62861 7.14856C5.86702 7.05319 6.13298 7.05319 6.37139 7.14856L8.5 8" stroke="black" stroke-linecap="round"/>
<path d="M5.56699 4.75C5.75944 4.41667 6.24056 4.41667 6.43301 4.75L7.29904 6.25C7.49149 6.58333 7.25093 7 6.86603 7H5.13397C4.74907 7 4.50851 6.58333 4.70096 6.25L5.56699 4.75Z" fill="black" stroke="black" stroke-width="0.5"/>
</svg>
